<?xml version="1.0" encoding="UTF-8"?>
<svg viewBox="0 0 40 39" xmlns="http://www.w3.org/2000/svg">
<path d="m21.016 19.136 7.2678-7.2678c0.2807-0.2807 0.2807-0.7357 0-1.0164s-0.7357-0.2807-1.0165 0l-7.2678 7.2677-7.2678-7.2678c-0.2807-0.2807-0.7357-0.2807-1.0164 0-0.2808 0.2807-0.2808 0.7357 0 1.0164l7.2677 7.2679-7.2678 7.2678c-0.2808 0.2808-0.2808 0.7358 0 1.0165 0.1403 0.1404 0.3242 0.2105 0.5082 0.2105s0.368-0.0701 0.5083-0.2105l7.2678-7.2678 7.2678 7.2678c0.1405 0.1404 0.3243 0.2105 0.5083 0.2105s0.3679-0.0701 0.5082-0.2105c0.2807-0.2807 0.2807-0.7357 0-1.0165l-7.2678-7.2678z"/>
<path d="m20 1.4375c2.39 0 4.7077 0.46782 6.889 1.3903 2.1073 0.89134 4.0003 2.1678 5.6262 3.7936 1.626 1.626 2.9023 3.5189 3.7938 5.6264 0.9225 2.1811 1.3902 4.4988 1.3902 6.8888s-0.4677 4.7077-1.3903 6.889c-0.8914 2.1073-2.1678 4.0004-3.7938 5.6263-1.6259 1.6259-3.5189 2.9023-5.6262 3.7937-2.1812 0.9225-4.4989 1.3902-6.8889 1.3902s-4.7077-0.4677-6.8889-1.3903c-2.1074-0.8914-4.0003-2.1677-5.6263-3.7937-1.6259-1.6259-2.9023-3.5189-3.7937-5.6263-0.92251-2.1812-1.3903-4.4989-1.3903-6.8889s0.46782-4.7077 1.3903-6.8888c0.89134-2.1075 2.1678-4.0004 3.7937-5.6264 1.626-1.6259 3.5189-2.9023 5.6263-3.7936 2.1812-0.92251 4.4989-1.3903 6.8889-1.3903zm0-1.4375c-10.569 0-19.137 8.5678-19.137 19.137 0 10.569 8.5678 19.137 19.137 19.137 10.569 0 19.137-8.5677 19.137-19.137 0-10.569-8.5678-19.137-19.137-19.137z"/>
</svg>
